# xmcd
#
# Track frame offsets: 
#        150
#        12453
#        42235
#        53460
#        75105
#        87308
#        101365
#        124530
#        142273
#        165500
#        197165
#        206413
#        217320
#        238675
#        260775
#
# Disc length: 4188 seconds
#
# Revision: 4
# Processed by: cddbd v1.5.1PL0 Copyright (c) Steve Scherf et al.
# Submitted via: ExactAudioCopy v0.90b4
#
DISCID=cd105a0f
DTITLE=Livin' Blues - The Complete Collection
DYEAR=2003
DGENRE=Blues
TTITLE0=Waitin' On You
TTITLE1=One Night Blues
TTITLE2=Bowlegged Woman
TTITLE3=Hell's Session
TTITLE4=Big Road Blues
TTITLE5=Black Panther
TTITLE6=Worried Dreams
TTITLE7=Big Black Train
TTITLE8=Wang Dang Doodle
TTITLE9=I Came Home At Night
TTITLE10=Whiskey And Gin
TTITLE11=This Is The Hour
TTITLE12=When The Sun Goes Down
TTITLE13=Go-Go-Train
TTITLE14=Spoonfull
EXTD=
EXTT0=
EXTT1=
EXTT2=
EXTT3=
EXTT4=
EXTT5=
EXTT6=
EXTT7=
EXTT8=
EXTT9=
EXTT10=
EXTT11=
EXTT12=
EXTT13=
EXTT14=
PLAYORDER=
